<?xml version="1.0" encoding="UTF-8"?>
<svg width="32" height="32" viewBox="0 0 32 32" xmlns="http://www.w3.org/2000/svg">
  <rect width="32" height="32" rx="4" fill="#5EBFB6"/>
  <g transform="translate(4, 4) scale(0.75)">
    <!-- Headphones -->
    <path d="M16 4
      C10 4, 6 8, 6 14
      L6 17
      L8 17
      L8 14
      C8 10, 11 8, 16 8
      C21 8, 24 10, 24 14
      L24 17
      L26 17
      L26 14
      C26 8, 22 4, 16 4" 
      fill="black"/>
    
    <!-- Sound bars -->
    <g transform="translate(11, 12)" fill="black">
      <rect x="0" y="0" width="1.5" height="6"/>
      <rect x="3" y="1" width="1.5" height="4"/>
      <rect x="6" y="0" width="1.5" height="6"/>
      <rect x="9" y="2" width="1.5" height="2"/>
    </g>
  </g>
</svg> 